<svg width="1200" height="320" viewBox="0 0 1200 320" fill="none" xmlns="http://www.w3.org/2000/svg">
  <title>10th SSC Solutions dark logo</title>
  <rect width="1200" height="320" rx="28" fill="#03152F"/>
  <g transform="translate(38 42)">
    <path d="M78 60C84 48 99 44 110 52C120 59 124 72 118 82C111 93 96 97 85 89C74 82 71 70 78 60Z" fill="#FACC15"/>
    <path d="M124 30C129 22 140 21 146 29C151 36 149 47 141 52C133 57 122 56 117 49C112 42 115 34 124 30Z" fill="#FACC15"/>
    <path d="M139 74C143 68 152 67 157 73C162 79 161 88 154 92C147 97 139 95 135 89C131 84 133 78 139 74Z" fill="#FACC15"/>
    <path d="M40 98C48 84 65 79 79 87C92 95 96 112 88 126C79 141 61 146 47 137C34 128 31 111 40 98Z" fill="#FACC15"/>
    <path d="M111 191L37 177L49 88C88 82 117 86 149 98L151 170L111 191Z" fill="#2563EB"/>
    <path d="M184 191L258 177L246 88C207 82 178 86 146 98L144 170L184 191Z" fill="#2563EB"/>
    <path d="M58 113L51 164L109 173C123 164 135 159 147 157V120C122 106 94 102 58 113Z" fill="#03152F"/>
    <path d="M237 113L244 164L186 173C172 164 160 159 148 157V120C173 106 201 102 237 113Z" fill="#03152F"/>
    <path d="M38 187L111 201L147 227L184 201L257 187" stroke="#1D4ED8" stroke-width="10" stroke-linecap="round" stroke-linejoin="round"/>
    <path d="M56 204L111 214L147 238L184 214L239 204" stroke="#1D4ED8" stroke-width="6" stroke-linecap="round" stroke-linejoin="round"/>
    <path d="M149 154C183 154 210 127 210 93C210 59 183 32 149 32C115 32 88 59 88 93C88 127 115 154 149 154Z" fill="#174FBD"/>
    <path d="M149 156C171 156 189 167 199 188L167 224L149 233L131 224L99 188C109 167 127 156 149 156Z" fill="#174FBD"/>
    <path d="M117 92L140 114L183 68" stroke="#FFFFFF" stroke-width="18" stroke-linecap="round" stroke-linejoin="round"/>
  </g>
  <path d="M395 56V264" stroke="#2563EB" stroke-width="6"/>
  <g fill="#FFFFFF">
    <path d="M514 89V215H474V124H438V89H514Z"/>
    <path d="M647 153C647 195 615 221 570 221C525 221 493 195 493 153C493 111 525 83 570 83C615 83 647 111 647 153ZM605 153C605 132 592 119 570 119C548 119 535 132 535 153C535 174 548 187 570 187C592 187 605 174 605 153Z"/>
    <path d="M705 116V137H729V164H705V221H672V164H651V137H672V116H705Z"/>
    <path d="M760 221V137H793V221H760ZM777 128C765 128 756 120 756 109C756 98 765 90 777 90C789 90 798 98 798 109C798 120 789 128 777 128Z"/>
  </g>
  <g fill="#2563EB">
    <path d="M935 84C987 84 1024 111 1024 152C1024 183 1001 205 964 210L1035 264H974L910 214H873V264H835V84H935ZM929 117H873V182H929C956 182 973 169 973 150C973 131 956 117 929 117Z"/>
    <path d="M1082 221C1104 221 1117 214 1117 202C1117 190 1106 185 1078 179L1057 174C1020 166 1002 150 1002 121C1002 86 1033 63 1081 63C1112 63 1140 74 1158 92L1134 119C1118 104 1100 96 1078 96C1058 96 1045 103 1045 114C1045 125 1055 130 1082 136L1103 141C1144 149 1161 165 1161 194C1161 231 1128 254 1079 254C1041 254 1008 241 987 218L1011 190C1030 211 1051 221 1082 221Z"/>
  </g>
  <path d="M484 243H590" stroke="#2563EB" stroke-width="6" stroke-linecap="round"/>
  <path d="M884 243H1000" stroke="#2563EB" stroke-width="6" stroke-linecap="round"/>
  <text x="615" y="247" fill="#FFFFFF" font-family="Poppins, Montserrat, Arial, sans-serif" font-size="68" font-weight="600" letter-spacing="12">Solutions</text>
</svg>
